name rise35.5848peak51.9257fall54.8793.mot
datacolumns 19
datarows 12
range 9.86162400000000 9.87995600000000
endheader
time	ground_force1_vx	ground_force1_vy	ground_force1_vz	ground_force1_px	ground_force1_py	ground_force1_pz	ground_force2_vx	ground_force2_vy	ground_force2_vz	ground_force2_px	ground_force2_py	ground_force2_pz	ground_torque1_x	ground_torque1_y	ground_torque1_z	ground_torque2_x	ground_torque2_y	ground_torque2_z	
9.86162400000000	55.53515800000000	729.88557400000002	35.82163600000000	0.30029400000000	0.00000000000000	0.06542300000000	-1.58225400000000	22.52289800000000	3.21055600000000	0.00000000000000	0.00000000000000	0.00000000000000	0.00000000000000	14.18030800000000	0.00000000000000	0.00000000000000	-0.30809300000000	0.00000000000000	
9.86328900000000	55.06210600000000	734.03763400000003	36.06145400000000	0.29948600000000	0.00000000000000	0.06541700000000	-0.94761700000000	16.68272600000000	2.47153500000000	0.00000000000000	0.00000000000000	0.00000000000000	0.00000000000000	14.27819900000000	0.00000000000000	0.00000000000000	-0.20616700000000	0.00000000000000	
9.86496100000000	54.58833000000000	738.08809199999996	36.30569700000000	0.29869900000000	0.00000000000000	0.06541000000000	-0.44731600000000	11.53397900000000	1.79320200000000	0.00000000000000	0.00000000000000	0.00000000000000	0.00000000000000	14.37920900000000	0.00000000000000	0.00000000000000	-0.12194200000000	0.00000000000000	
9.86662400000000	54.11462600000000	742.03408200000001	36.55440700000000	0.29793100000000	0.00000000000000	0.06540300000000	-0.07250200000000	7.14405500000000	1.19204900000000	0.00000000000000	0.00000000000000	0.00000000000000	0.00000000000000	14.48334500000000	0.00000000000000	0.00000000000000	-0.05510800000000	0.00000000000000	
9.86829500000000	53.64172400000000	745.87272800000005	36.80753700000000	0.29718100000000	0.00000000000000	0.06539700000000	0.18897100000000	3.54695000000000	0.67986100000000	0.00000000000000	0.00000000000000	0.00000000000000	0.00000000000000	14.59056200000000	0.00000000000000	0.00000000000000	-0.00477600000000	0.00000000000000	
9.86995900000000	53.17028800000000	749.60116000000005	37.06495500000000	0.29644900000000	0.00000000000000	0.06539100000000	0.00000000000000	0.00000000000000	0.00000000000000	0.00000000000000	0.00000000000000	0.00000000000000	0.00000000000000	14.70076800000000	0.00000000000000	0.00000000000000	0.00000000000000	0.00000000000000	
9.87163800000000	52.70092000000000	753.21652500000005	37.32644600000000	0.29573200000000	0.00000000000000	0.06538500000000	0.00000000000000	0.00000000000000	0.00000000000000	0.00000000000000	0.00000000000000	0.00000000000000	0.00000000000000	14.81382300000000	0.00000000000000	0.00000000000000	0.00000000000000	0.00000000000000	
9.87329100000000	52.23416100000000	756.71600300000000	37.59171600000000	0.29503000000000	0.00000000000000	0.06537900000000	0.00000000000000	0.00000000000000	0.00000000000000	0.00000000000000	0.00000000000000	0.00000000000000	0.00000000000000	14.92954300000000	0.00000000000000	0.00000000000000	0.00000000000000	0.00000000000000	
9.87495400000000	51.77049000000000	760.09682199999997	37.86039600000000	0.29434100000000	0.00000000000000	0.06537400000000	0.00000000000000	0.00000000000000	0.00000000000000	0.00000000000000	0.00000000000000	0.00000000000000	0.00000000000000	15.04770300000000	0.00000000000000	0.00000000000000	0.00000000000000	0.00000000000000	
9.87662500000000	51.31033000000000	763.35626800000000	38.13204800000000	0.29366500000000	0.00000000000000	0.06536900000000	0.00000000000000	0.00000000000000	0.00000000000000	0.00000000000000	0.00000000000000	0.00000000000000	0.00000000000000	15.16803800000000	0.00000000000000	0.00000000000000	0.00000000000000	0.00000000000000	
9.87829000000000	50.85404600000000	766.49170400000003	38.40617000000000	0.29299900000000	0.00000000000000	0.06536400000000	0.00000000000000	0.00000000000000	0.00000000000000	0.00000000000000	0.00000000000000	0.00000000000000	0.00000000000000	15.29024900000000	0.00000000000000	0.00000000000000	0.00000000000000	0.00000000000000	
9.87995600000000	50.40195100000000	769.50058100000001	38.68219900000000	0.29234300000000	0.00000000000000	0.06535900000000	0.00000000000000	0.00000000000000	0.00000000000000	0.00000000000000	0.00000000000000	0.00000000000000	0.00000000000000	15.41400300000000	0.00000000000000	0.00000000000000	0.00000000000000	0.00000000000000	
